<mxfile host="Electron" modified="2023-04-08T16:12:59.898Z" agent="Mozilla/5.0 (Windows NT 10.0; Win64; x64) AppleWebKit/537.36 (KHTML, like Gecko) draw.io/21.1.2 Chrome/106.0.5249.199 Electron/21.4.3 Safari/537.36" etag="ioUid5mhVDhz2WIuCW8_" version="21.1.2" type="device">
  <diagram id="FnZsY2ouUx1naVuJApv_" name="Страница 1">
    <mxGraphModel dx="4456" dy="2316" grid="1" gridSize="10" guides="1" tooltips="1" connect="1" arrows="1" fold="1" page="1" pageScale="1" pageWidth="827" pageHeight="1169" math="0" shadow="0">
      <root>
        <mxCell id="0" />
        <mxCell id="1" parent="0" />
        <mxCell id="cklBy7s0651ejE6oJS3A-41" value="" style="rounded=0;whiteSpace=wrap;html=1;fillColor=none;strokeColor=#82b366;strokeWidth=2;" parent="1" vertex="1">
          <mxGeometry x="1060" y="380" width="420" height="100" as="geometry" />
        </mxCell>
        <mxCell id="cklBy7s0651ejE6oJS3A-38" value="" style="rounded=0;whiteSpace=wrap;html=1;fillColor=none;strokeColor=#82b366;strokeWidth=2;shadow=0;" parent="1" vertex="1">
          <mxGeometry x="-520" y="300" width="410" height="260" as="geometry" />
        </mxCell>
        <mxCell id="cklBy7s0651ejE6oJS3A-5" style="edgeStyle=orthogonalEdgeStyle;rounded=0;orthogonalLoop=1;jettySize=auto;html=1;entryX=0.5;entryY=0;entryDx=0;entryDy=0;" parent="1" source="cklBy7s0651ejE6oJS3A-1" target="cklBy7s0651ejE6oJS3A-4" edge="1">
          <mxGeometry relative="1" as="geometry" />
        </mxCell>
        <mxCell id="cklBy7s0651ejE6oJS3A-1" value="App" style="rounded=0;whiteSpace=wrap;html=1;" parent="1" vertex="1">
          <mxGeometry x="280" y="920" width="160" height="60" as="geometry" />
        </mxCell>
        <mxCell id="cklBy7s0651ejE6oJS3A-4" value="render()" style="rounded=0;whiteSpace=wrap;html=1;" parent="1" vertex="1">
          <mxGeometry x="280" y="1040" width="160" height="60" as="geometry" />
        </mxCell>
        <mxCell id="cklBy7s0651ejE6oJS3A-7" style="edgeStyle=orthogonalEdgeStyle;rounded=0;orthogonalLoop=1;jettySize=auto;html=1;entryX=0.5;entryY=0;entryDx=0;entryDy=0;" parent="1" source="cklBy7s0651ejE6oJS3A-6" target="cklBy7s0651ejE6oJS3A-1" edge="1">
          <mxGeometry relative="1" as="geometry" />
        </mxCell>
        <mxCell id="cklBy7s0651ejE6oJS3A-6" value="Routing" style="rounded=0;whiteSpace=wrap;html=1;" parent="1" vertex="1">
          <mxGeometry x="280" y="800" width="160" height="60" as="geometry" />
        </mxCell>
        <mxCell id="cklBy7s0651ejE6oJS3A-9" style="edgeStyle=orthogonalEdgeStyle;rounded=0;orthogonalLoop=1;jettySize=auto;html=1;entryX=0.5;entryY=0;entryDx=0;entryDy=0;" parent="1" source="cklBy7s0651ejE6oJS3A-8" target="cklBy7s0651ejE6oJS3A-6" edge="1">
          <mxGeometry relative="1" as="geometry" />
        </mxCell>
        <mxCell id="cklBy7s0651ejE6oJS3A-8" value="PaintPage" style="rounded=0;whiteSpace=wrap;html=1;" parent="1" vertex="1">
          <mxGeometry x="280" y="680" width="160" height="60" as="geometry" />
        </mxCell>
        <mxCell id="cklBy7s0651ejE6oJS3A-11" style="edgeStyle=orthogonalEdgeStyle;rounded=0;orthogonalLoop=1;jettySize=auto;html=1;entryX=1;entryY=0.5;entryDx=0;entryDy=0;" parent="1" source="cklBy7s0651ejE6oJS3A-10" target="cklBy7s0651ejE6oJS3A-1" edge="1">
          <mxGeometry relative="1" as="geometry" />
        </mxCell>
        <mxCell id="cklBy7s0651ejE6oJS3A-10" value="Redux provider" style="rounded=1;whiteSpace=wrap;html=1;" parent="1" vertex="1">
          <mxGeometry x="520" y="920" width="160" height="60" as="geometry" />
        </mxCell>
        <mxCell id="cklBy7s0651ejE6oJS3A-13" style="edgeStyle=orthogonalEdgeStyle;rounded=0;orthogonalLoop=1;jettySize=auto;html=1;entryX=1;entryY=0.5;entryDx=0;entryDy=0;" parent="1" source="cklBy7s0651ejE6oJS3A-12" target="cklBy7s0651ejE6oJS3A-8" edge="1">
          <mxGeometry relative="1" as="geometry" />
        </mxCell>
        <mxCell id="cklBy7s0651ejE6oJS3A-12" value="Paint provider" style="rounded=1;whiteSpace=wrap;html=1;" parent="1" vertex="1">
          <mxGeometry x="520" y="680" width="160" height="60" as="geometry" />
        </mxCell>
        <mxCell id="cklBy7s0651ejE6oJS3A-18" style="edgeStyle=orthogonalEdgeStyle;rounded=0;orthogonalLoop=1;jettySize=auto;html=1;entryX=0.5;entryY=0;entryDx=0;entryDy=0;" parent="1" source="cklBy7s0651ejE6oJS3A-17" target="cklBy7s0651ejE6oJS3A-8" edge="1">
          <mxGeometry relative="1" as="geometry" />
        </mxCell>
        <mxCell id="cklBy7s0651ejE6oJS3A-17" value="Paint" style="rounded=0;whiteSpace=wrap;html=1;" parent="1" vertex="1">
          <mxGeometry x="280" y="560" width="160" height="60" as="geometry" />
        </mxCell>
        <mxCell id="cklBy7s0651ejE6oJS3A-21" style="edgeStyle=orthogonalEdgeStyle;rounded=0;orthogonalLoop=1;jettySize=auto;html=1;entryX=1;entryY=0.5;entryDx=0;entryDy=0;" parent="1" source="cklBy7s0651ejE6oJS3A-20" target="cklBy7s0651ejE6oJS3A-17" edge="1">
          <mxGeometry relative="1" as="geometry" />
        </mxCell>
        <mxCell id="cklBy7s0651ejE6oJS3A-20" value="usePaint()" style="shape=hexagon;perimeter=hexagonPerimeter2;whiteSpace=wrap;html=1;fixedSize=1;" parent="1" vertex="1">
          <mxGeometry x="520" y="560" width="160" height="60" as="geometry" />
        </mxCell>
        <mxCell id="cklBy7s0651ejE6oJS3A-28" style="edgeStyle=orthogonalEdgeStyle;rounded=0;orthogonalLoop=1;jettySize=auto;html=1;exitX=0.5;exitY=1;exitDx=0;exitDy=0;entryX=0.5;entryY=0;entryDx=0;entryDy=0;" parent="1" source="cklBy7s0651ejE6oJS3A-22" target="cklBy7s0651ejE6oJS3A-17" edge="1">
          <mxGeometry relative="1" as="geometry" />
        </mxCell>
        <mxCell id="cklBy7s0651ejE6oJS3A-22" value="Header" style="rounded=0;whiteSpace=wrap;html=1;" parent="1" vertex="1">
          <mxGeometry x="-280" y="400" width="160" height="60" as="geometry" />
        </mxCell>
        <mxCell id="cklBy7s0651ejE6oJS3A-29" style="edgeStyle=orthogonalEdgeStyle;rounded=0;orthogonalLoop=1;jettySize=auto;html=1;exitX=0.5;exitY=1;exitDx=0;exitDy=0;entryX=0.5;entryY=0;entryDx=0;entryDy=0;" parent="1" source="cklBy7s0651ejE6oJS3A-23" target="cklBy7s0651ejE6oJS3A-17" edge="1">
          <mxGeometry relative="1" as="geometry" />
        </mxCell>
        <mxCell id="cklBy7s0651ejE6oJS3A-23" value="Canvas" style="rounded=0;whiteSpace=wrap;html=1;" parent="1" vertex="1">
          <mxGeometry x="-300" y="-430" width="160" height="60" as="geometry" />
        </mxCell>
        <mxCell id="cklBy7s0651ejE6oJS3A-30" style="edgeStyle=orthogonalEdgeStyle;rounded=0;orthogonalLoop=1;jettySize=auto;html=1;exitX=0.5;exitY=1;exitDx=0;exitDy=0;entryX=0.5;entryY=0;entryDx=0;entryDy=0;" parent="1" source="cklBy7s0651ejE6oJS3A-24" target="cklBy7s0651ejE6oJS3A-17" edge="1">
          <mxGeometry relative="1" as="geometry" />
        </mxCell>
        <mxCell id="cklBy7s0651ejE6oJS3A-24" value="Toolbar" style="rounded=0;whiteSpace=wrap;html=1;" parent="1" vertex="1">
          <mxGeometry x="680" y="40" width="160" height="60" as="geometry" />
        </mxCell>
        <mxCell id="cklBy7s0651ejE6oJS3A-31" style="edgeStyle=orthogonalEdgeStyle;rounded=0;orthogonalLoop=1;jettySize=auto;html=1;exitX=0.5;exitY=1;exitDx=0;exitDy=0;entryX=0.5;entryY=0;entryDx=0;entryDy=0;" parent="1" source="cklBy7s0651ejE6oJS3A-25" target="cklBy7s0651ejE6oJS3A-17" edge="1">
          <mxGeometry relative="1" as="geometry" />
        </mxCell>
        <mxCell id="cklBy7s0651ejE6oJS3A-25" value="UserModal" style="rounded=0;whiteSpace=wrap;html=1;" parent="1" vertex="1">
          <mxGeometry x="1080" y="400" width="160" height="60" as="geometry" />
        </mxCell>
        <mxCell id="cklBy7s0651ejE6oJS3A-33" style="edgeStyle=orthogonalEdgeStyle;rounded=0;orthogonalLoop=1;jettySize=auto;html=1;exitX=1;exitY=0.5;exitDx=0;exitDy=0;entryX=0;entryY=0.5;entryDx=0;entryDy=0;" parent="1" source="cklBy7s0651ejE6oJS3A-32" target="cklBy7s0651ejE6oJS3A-22" edge="1">
          <mxGeometry relative="1" as="geometry" />
        </mxCell>
        <mxCell id="cklBy7s0651ejE6oJS3A-32" value="useSoket()" style="shape=hexagon;perimeter=hexagonPerimeter2;whiteSpace=wrap;html=1;fixedSize=1;" parent="1" vertex="1">
          <mxGeometry x="-500" y="400" width="160" height="60" as="geometry" />
        </mxCell>
        <mxCell id="cklBy7s0651ejE6oJS3A-37" style="edgeStyle=orthogonalEdgeStyle;rounded=0;orthogonalLoop=1;jettySize=auto;html=1;exitX=1;exitY=0.5;exitDx=0;exitDy=0;entryX=0;entryY=0.5;entryDx=0;entryDy=0;" parent="1" source="cklBy7s0651ejE6oJS3A-34" target="cklBy7s0651ejE6oJS3A-22" edge="1">
          <mxGeometry relative="1" as="geometry" />
        </mxCell>
        <mxCell id="cklBy7s0651ejE6oJS3A-34" value="useTypedSelector()" style="shape=hexagon;perimeter=hexagonPerimeter2;whiteSpace=wrap;html=1;fixedSize=1;" parent="1" vertex="1">
          <mxGeometry x="-500" y="480" width="160" height="60" as="geometry" />
        </mxCell>
        <mxCell id="cklBy7s0651ejE6oJS3A-36" style="edgeStyle=orthogonalEdgeStyle;rounded=0;orthogonalLoop=1;jettySize=auto;html=1;exitX=1;exitY=0.5;exitDx=0;exitDy=0;entryX=0;entryY=0.5;entryDx=0;entryDy=0;" parent="1" source="cklBy7s0651ejE6oJS3A-35" target="cklBy7s0651ejE6oJS3A-22" edge="1">
          <mxGeometry relative="1" as="geometry" />
        </mxCell>
        <mxCell id="cklBy7s0651ejE6oJS3A-35" value="useCanvasRestore()" style="shape=hexagon;perimeter=hexagonPerimeter2;whiteSpace=wrap;html=1;fixedSize=1;" parent="1" vertex="1">
          <mxGeometry x="-500" y="320" width="160" height="60" as="geometry" />
        </mxCell>
        <mxCell id="cklBy7s0651ejE6oJS3A-40" style="edgeStyle=orthogonalEdgeStyle;rounded=0;orthogonalLoop=1;jettySize=auto;html=1;exitX=0;exitY=0.5;exitDx=0;exitDy=0;entryX=1;entryY=0.5;entryDx=0;entryDy=0;" parent="1" source="cklBy7s0651ejE6oJS3A-39" target="cklBy7s0651ejE6oJS3A-25" edge="1">
          <mxGeometry relative="1" as="geometry" />
        </mxCell>
        <mxCell id="cklBy7s0651ejE6oJS3A-39" value="UseState&lt;br&gt;UseValidInput&lt;br&gt;useTypeddispatch" style="shape=hexagon;perimeter=hexagonPerimeter2;whiteSpace=wrap;html=1;fixedSize=1;" parent="1" vertex="1">
          <mxGeometry x="1300" y="400" width="160" height="60" as="geometry" />
        </mxCell>
        <mxCell id="cklBy7s0651ejE6oJS3A-43" value="useSoket()" style="shape=hexagon;perimeter=hexagonPerimeter2;whiteSpace=wrap;html=1;fixedSize=1;" parent="1" vertex="1">
          <mxGeometry x="-1480" y="90" width="400" height="60" as="geometry" />
        </mxCell>
        <mxCell id="cklBy7s0651ejE6oJS3A-45" value="Содержит вебсокет и базовые методы работы с ним" style="text;html=1;align=center;verticalAlign=middle;resizable=0;points=[];autosize=1;strokeColor=none;fillColor=none;" parent="1" vertex="1">
          <mxGeometry x="-1460" y="150" width="320" height="30" as="geometry" />
        </mxCell>
        <mxCell id="cklBy7s0651ejE6oJS3A-55" style="edgeStyle=orthogonalEdgeStyle;rounded=0;orthogonalLoop=1;jettySize=auto;html=1;exitX=1;exitY=0.5;exitDx=0;exitDy=0;entryX=0;entryY=0.5;entryDx=0;entryDy=0;" parent="1" source="cklBy7s0651ejE6oJS3A-46" target="cklBy7s0651ejE6oJS3A-49" edge="1">
          <mxGeometry relative="1" as="geometry" />
        </mxCell>
        <mxCell id="cklBy7s0651ejE6oJS3A-56" style="edgeStyle=orthogonalEdgeStyle;rounded=0;orthogonalLoop=1;jettySize=auto;html=1;exitX=1;exitY=0.5;exitDx=0;exitDy=0;entryX=0;entryY=0.5;entryDx=0;entryDy=0;" parent="1" source="cklBy7s0651ejE6oJS3A-46" target="cklBy7s0651ejE6oJS3A-51" edge="1">
          <mxGeometry relative="1" as="geometry" />
        </mxCell>
        <mxCell id="cklBy7s0651ejE6oJS3A-57" style="edgeStyle=orthogonalEdgeStyle;rounded=0;orthogonalLoop=1;jettySize=auto;html=1;exitX=1;exitY=0.5;exitDx=0;exitDy=0;entryX=0;entryY=0.5;entryDx=0;entryDy=0;" parent="1" source="cklBy7s0651ejE6oJS3A-46" target="cklBy7s0651ejE6oJS3A-53" edge="1">
          <mxGeometry relative="1" as="geometry" />
        </mxCell>
        <mxCell id="cklBy7s0651ejE6oJS3A-46" value="useCanvas()" style="shape=hexagon;perimeter=hexagonPerimeter2;whiteSpace=wrap;html=1;fixedSize=1;" parent="1" vertex="1">
          <mxGeometry x="-2055" y="680" width="400" height="60" as="geometry" />
        </mxCell>
        <mxCell id="cklBy7s0651ejE6oJS3A-47" value="Содержит Canvas element, и все методы для легкого взаимодействия с Canvas" style="text;html=1;align=center;verticalAlign=middle;resizable=0;points=[];autosize=1;strokeColor=none;fillColor=none;" parent="1" vertex="1">
          <mxGeometry x="-2090" y="740" width="470" height="30" as="geometry" />
        </mxCell>
        <mxCell id="cklBy7s0651ejE6oJS3A-49" value="useCanvasRestore()" style="shape=hexagon;perimeter=hexagonPerimeter2;whiteSpace=wrap;html=1;fixedSize=1;" parent="1" vertex="1">
          <mxGeometry x="-1480" y="580" width="400" height="60" as="geometry" />
        </mxCell>
        <mxCell id="cklBy7s0651ejE6oJS3A-50" value="Содержит логику вперед, назад и отображение на canvas" style="text;html=1;align=center;verticalAlign=middle;resizable=0;points=[];autosize=1;strokeColor=none;fillColor=none;" parent="1" vertex="1">
          <mxGeometry x="-1465" y="640" width="350" height="30" as="geometry" />
        </mxCell>
        <mxCell id="cklBy7s0651ejE6oJS3A-51" value="useCanvasDraw()" style="shape=hexagon;perimeter=hexagonPerimeter2;whiteSpace=wrap;html=1;fixedSize=1;" parent="1" vertex="1">
          <mxGeometry x="-1480" y="680" width="400" height="60" as="geometry" />
        </mxCell>
        <mxCell id="cklBy7s0651ejE6oJS3A-52" value="Содержит логику рисования canvas" style="text;html=1;align=center;verticalAlign=middle;resizable=0;points=[];autosize=1;strokeColor=none;fillColor=none;" parent="1" vertex="1">
          <mxGeometry x="-1400" y="740" width="220" height="30" as="geometry" />
        </mxCell>
        <mxCell id="cklBy7s0651ejE6oJS3A-53" value="useCanvasResize()" style="shape=hexagon;perimeter=hexagonPerimeter2;whiteSpace=wrap;html=1;fixedSize=1;" parent="1" vertex="1">
          <mxGeometry x="-1480" y="780" width="400" height="60" as="geometry" />
        </mxCell>
        <mxCell id="cklBy7s0651ejE6oJS3A-54" value="Содержит логику изменения размера canvas" style="text;html=1;align=center;verticalAlign=middle;resizable=0;points=[];autosize=1;strokeColor=none;fillColor=none;" parent="1" vertex="1">
          <mxGeometry x="-1425" y="840" width="270" height="30" as="geometry" />
        </mxCell>
        <mxCell id="cklBy7s0651ejE6oJS3A-58" value="useValidInput()" style="shape=hexagon;perimeter=hexagonPerimeter2;whiteSpace=wrap;html=1;fixedSize=1;" parent="1" vertex="1">
          <mxGeometry x="-1480" y="920" width="400" height="60" as="geometry" />
        </mxCell>
        <mxCell id="cklBy7s0651ejE6oJS3A-59" value="Содержит логику изменения и валидации input" style="text;html=1;align=center;verticalAlign=middle;resizable=0;points=[];autosize=1;strokeColor=none;fillColor=none;" parent="1" vertex="1">
          <mxGeometry x="-1435" y="980" width="290" height="30" as="geometry" />
        </mxCell>
        <mxCell id="cklBy7s0651ejE6oJS3A-60" value="useSelect()" style="shape=hexagon;perimeter=hexagonPerimeter2;whiteSpace=wrap;html=1;fixedSize=1;" parent="1" vertex="1">
          <mxGeometry x="-1480" y="240" width="400" height="60" as="geometry" />
        </mxCell>
        <mxCell id="cklBy7s0651ejE6oJS3A-61" value="Содержит логику для отрисовки select" style="text;html=1;align=center;verticalAlign=middle;resizable=0;points=[];autosize=1;strokeColor=none;fillColor=none;" parent="1" vertex="1">
          <mxGeometry x="-1410" y="300" width="240" height="30" as="geometry" />
        </mxCell>
        <mxCell id="v-Y_IKw38wnQUIR64-2Q-6" value="" style="group;rotation=-30;" vertex="1" connectable="0" parent="1">
          <mxGeometry x="-1790" y="470" width="210" height="165" as="geometry" />
        </mxCell>
        <mxCell id="cklBy7s0651ejE6oJS3A-64" value="" style="html=1;shadow=0;dashed=0;align=center;verticalAlign=middle;shape=mxgraph.arrows2.arrow;dy=0.6;dx=40;flipH=1;notch=0;rotation=-120;fillColor=#fa6800;strokeColor=#C73500;fontColor=#000000;fillStyle=auto;" parent="v-Y_IKw38wnQUIR64-2Q-6" vertex="1">
          <mxGeometry x="71" y="76" width="100" height="70" as="geometry" />
        </mxCell>
        <mxCell id="v-Y_IKw38wnQUIR64-2Q-2" value="&lt;font style=&quot;font-size: 23px;&quot;&gt;Рефакторинг&lt;/font&gt;" style="rounded=0;whiteSpace=wrap;html=1;fillColor=#fa6800;fontColor=#000000;strokeColor=#C73500;fillStyle=auto;rotation=-30;" vertex="1" parent="v-Y_IKw38wnQUIR64-2Q-6">
          <mxGeometry x="-26" y="7" width="210" height="60" as="geometry" />
        </mxCell>
      </root>
    </mxGraphModel>
  </diagram>
</mxfile>
